<svg xmlns="http://www.w3.org/2000/svg" width="508" height="467" viewBox="0 0 508 467">
<g>
<path d="M 75.35 442.75 L 71.98 448.00 L 44.96 448.00 C20.89,448.00 17.87,447.82 17.31,446.37 C16.97,445.47 17.29,443.78 18.04,442.62 C20.60,438.62 36.22,411.64 45.48,395.24 C48.51,389.89 51.41,384.83 51.94,384.00 C52.46,383.17 55.41,378.23 58.50,373.00 C61.59,367.77 64.53,362.83 65.05,362.00 C65.56,361.17 67.39,357.80 69.10,354.50 C70.82,351.20 72.80,347.83 73.51,347.00 C74.21,346.17 76.66,341.96 78.95,337.64 C81.24,333.32 84.24,328.00 85.61,325.82 C89.11,320.28 91.82,315.53 95.79,308.00 C97.67,304.42 99.78,300.83 100.47,300.00 C101.16,299.17 105.42,291.98 109.93,284.00 C114.45,276.02 119.83,266.77 121.89,263.44 C123.96,260.10 129.17,251.10 133.48,243.44 C137.78,235.77 143.43,225.90 146.02,221.50 C154.47,207.17 159.39,198.59 162.09,193.50 C163.55,190.75 167.01,184.68 169.78,180.00 C180.18,162.46 192.47,141.22 196.96,133.00 C199.51,128.32 204.55,119.55 208.16,113.50 C214.28,103.22 233.65,69.69 241.94,55.00 C247.55,45.08 250.93,40.00 251.94,40.00 C253.41,40.00 256.05,43.85 263.50,56.86 C267.35,63.58 271.40,70.62 272.50,72.50 C277.12,80.40 283.17,90.86 286.08,96.00 C287.79,99.03 291.43,105.32 294.17,110.00 C296.90,114.68 299.63,119.40 300.24,120.50 C300.85,121.60 306.44,131.24 312.67,141.91 C318.90,152.59 324.00,161.56 324.00,161.84 C324.00,162.11 324.63,163.05 325.40,163.92 C326.18,164.79 328.70,169.10 331.02,173.50 C333.33,177.90 336.91,184.20 338.96,187.50 C341.01,190.80 348.92,204.52 356.53,218.00 C364.15,231.48 371.87,244.69 373.69,247.36 C375.51,250.04 377.00,252.67 377.00,253.22 C377.00,253.77 380.73,260.58 385.29,268.36 C389.84,276.14 394.64,284.52 395.95,287.00 C397.26,289.48 399.53,293.30 401.00,295.50 C402.47,297.70 406.30,304.23 409.51,310.00 C412.71,315.77 417.04,323.10 419.11,326.27 C421.18,329.45 423.19,333.02 423.57,334.21 C423.95,335.40 426.22,339.45 428.63,343.20 C431.03,346.95 433.00,350.25 433.00,350.53 C433.00,350.81 434.18,352.90 435.61,355.18 C437.05,357.45 439.23,361.16 440.45,363.41 C441.68,365.66 445.07,371.55 447.99,376.50 C454.55,387.64 463.10,402.41 467.96,411.00 C469.99,414.58 475.39,423.95 479.98,431.84 C486.63,443.29 488.03,446.37 486.91,447.08 C486.13,447.57 473.96,447.98 459.86,447.98 C436.89,448.00 434.00,447.82 432.13,446.25 C430.98,445.29 425.04,435.73 418.94,425.00 C412.84,414.27 407.19,404.83 406.39,404.00 C405.12,402.70 394.69,402.47 326.21,402.30 C260.40,402.13 247.35,401.87 246.61,400.71 C245.75,399.39 247.03,396.77 256.20,381.11 C257.68,378.57 260.90,372.65 263.36,367.95 C265.81,363.24 268.61,358.74 269.57,357.95 C271.02,356.75 277.44,356.49 307.41,356.46 C367.82,356.41 374.98,356.20 375.62,354.55 C375.93,353.75 374.61,350.48 372.70,347.30 C368.78,340.78 349.96,307.91 346.18,301.00 C343.24,295.60 330.55,273.92 327.46,269.00 C326.25,267.08 320.87,257.62 315.51,248.00 C310.14,238.38 304.21,228.11 302.33,225.20 C300.45,222.28 298.48,218.91 297.96,217.70 C297.44,216.49 295.25,212.57 293.10,209.00 C290.95,205.43 286.38,197.55 282.95,191.50 C279.52,185.45 274.71,177.17 272.26,173.10 C269.80,169.03 266.94,164.19 265.90,162.35 C256.39,145.58 254.39,142.51 252.75,142.19 C250.74,141.80 247.72,146.47 230.20,177.00 C222.78,189.93 214.08,204.87 210.86,210.22 C207.64,215.56 205.00,220.16 205.00,220.45 C205.00,220.73 203.43,223.42 201.50,226.43 C199.57,229.44 198.00,232.09 198.00,232.33 C198.00,232.76 190.71,245.44 178.06,267.00 C174.03,273.88 168.26,283.77 165.25,289.00 C162.24,294.23 158.41,300.75 156.75,303.50 C155.09,306.25 152.40,310.98 150.76,314.00 C147.56,319.91 145.08,324.18 134.60,341.81 C130.90,348.03 128.02,353.80 128.19,354.64 C128.45,355.92 131.90,356.21 150.74,356.55 C163.28,356.78 174.06,356.55 175.45,356.02 C176.81,355.50 178.84,353.37 179.97,351.29 C181.10,349.21 182.47,346.83 183.01,346.00 C183.55,345.17 185.64,341.58 187.65,338.00 C189.65,334.42 193.98,326.77 197.27,321.00 C200.55,315.23 204.62,308.02 206.30,305.00 C207.98,301.98 211.07,296.68 213.18,293.23 C215.28,289.79 217.00,286.74 217.00,286.46 C217.00,286.19 218.21,284.06 219.68,281.73 C221.16,279.40 225.94,271.20 230.32,263.50 C234.69,255.80 239.94,246.57 241.98,243.00 C244.03,239.43 247.25,233.80 249.14,230.50 C253.71,222.52 255.68,222.27 259.32,229.21 C260.84,232.12 263.79,237.43 265.88,241.00 C267.97,244.57 271.17,250.20 273.00,253.50 C274.83,256.80 277.38,261.07 278.66,262.98 C279.95,264.90 281.00,267.55 281.00,268.88 C281.00,270.85 277.14,278.64 271.02,289.00 C265.75,297.95 258.55,310.43 253.74,319.00 C250.50,324.77 246.36,331.75 244.55,334.50 C242.73,337.25 239.61,342.84 237.60,346.91 C235.59,350.99 232.16,357.01 229.97,360.28 C227.79,363.55 226.00,366.39 226.00,366.58 C226.00,366.77 223.46,371.11 220.36,376.21 C217.26,381.32 213.42,387.90 211.82,390.84 C210.23,393.78 203.82,405.03 197.57,415.84 C191.33,426.65 184.97,437.75 183.45,440.50 C181.92,443.25 179.96,446.05 179.08,446.72 C177.94,447.60 170.73,447.95 153.22,447.97 L 152.10 447.97 C134.95,447.99 129.01,448.00 128.12,445.89 C127.65,444.77 128.59,443.05 130.03,440.43 L 130.21 440.11 C139.28,423.58 147.48,409.27 148.64,407.92 C149.39,407.05 150.00,405.59 150.00,404.67 C150.00,403.22 148.48,402.97 138.25,402.78 C123.59,402.51 101.06,403.00 98.80,403.63 C97.87,403.89 96.79,405.07 96.42,406.26 C95.71,408.50 81.22,433.59 75.35,442.75 ZM 453.67 446.04 C464.58,446.34 474.40,446.67 475.50,446.78 C479.20,447.15 485.00,445.75 485.00,444.50 C485.00,443.81 482.61,439.26 479.68,434.38 C476.76,429.49 472.64,422.35 470.53,418.51 C468.42,414.66 465.25,409.26 463.49,406.51 C461.72,403.75 455.19,392.50 448.97,381.50 C442.76,370.50 434.14,355.54 429.84,348.25 C425.53,340.96 422.00,334.75 422.00,334.43 C422.00,334.12 420.72,331.98 419.15,329.68 C417.59,327.38 413.46,320.33 409.99,314.00 C406.51,307.67 401.32,298.85 398.44,294.39 C395.57,289.92 392.91,285.28 392.52,284.06 C392.13,282.84 389.69,278.38 387.09,274.14 C381.35,264.80 372.22,249.05 363.52,233.50 C361.37,229.65 357.82,223.57 355.64,220.00 C353.46,216.43 349.99,210.32 347.92,206.43 C345.85,202.55 342.79,197.15 341.12,194.43 C339.46,191.72 335.95,185.68 333.34,181.00 C330.73,176.32 325.31,166.97 321.30,160.22 C317.28,153.46 314.00,147.72 314.00,147.46 C314.00,147.19 310.70,141.47 306.67,134.74 C294.01,113.59 284.79,97.77 281.35,91.28 C279.52,87.84 275.52,80.86 272.45,75.76 C266.38,65.68 265.92,64.87 262.77,58.68 C258.84,50.94 253.82,44.00 252.15,44.01 C250.69,44.02 240.00,60.34 240.00,62.56 C240.00,62.99 239.38,64.05 238.63,64.92 C237.87,65.79 235.78,69.20 233.98,72.50 C232.18,75.80 229.19,80.87 227.35,83.77 C225.51,86.67 224.00,89.26 224.00,89.54 C224.00,89.81 222.20,93.00 220.00,96.62 C217.80,100.24 216.00,103.50 216.00,103.87 C216.00,104.24 214.78,106.33 213.29,108.52 C211.80,110.71 208.94,115.43 206.93,119.00 C204.93,122.57 200.83,129.77 197.83,135.00 C194.83,140.23 191.01,146.98 189.33,150.00 C187.66,153.02 183.93,159.55 181.04,164.50 C178.16,169.45 173.57,177.32 170.85,182.00 C168.12,186.68 165.47,191.18 164.95,192.00 C163.55,194.22 157.19,205.58 153.20,213.00 C151.27,216.57 148.70,220.85 147.49,222.50 C146.28,224.15 142.97,229.77 140.13,235.00 C137.29,240.23 133.88,246.30 132.54,248.50 C127.83,256.26 123.00,265.08 123.00,265.91 C123.00,266.38 122.33,267.31 121.52,267.99 C120.70,268.66 118.74,271.53 117.17,274.36 C115.59,277.19 111.92,283.77 109.02,289.00 C106.11,294.23 103.18,299.17 102.49,300.00 C101.81,300.83 99.67,304.42 97.76,308.00 C91.47,319.71 88.77,324.44 85.82,328.86 C84.22,331.26 81.60,335.84 79.99,339.02 C78.38,342.21 75.92,346.50 74.53,348.55 C73.14,350.60 72.00,352.90 72.00,353.66 C72.00,354.42 70.85,356.86 69.45,359.09 C66.51,363.73 63.34,369.17 61.05,373.50 C60.17,375.15 58.00,378.61 56.23,381.18 C54.45,383.75 53.00,386.16 53.00,386.53 C53.00,386.90 51.49,389.74 49.65,392.85 C46.55,398.08 42.05,405.83 30.97,425.00 C28.59,429.12 25.10,435.06 23.22,438.18 C21.34,441.31 20.10,444.35 20.46,444.93 C20.90,445.64 29.45,446.00 46.01,446.00 L 70.90 446.00 L 73.35 442.75 C74.70,440.96 79.26,433.42 83.49,426.00 C87.71,418.58 92.01,411.31 93.04,409.85 C94.07,408.39 95.20,406.05 95.55,404.65 C96.43,401.15 99.38,400.84 128.49,401.20 C150.64,401.48 152.50,401.64 152.82,403.30 C153.01,404.29 152.10,406.54 150.81,408.30 C149.51,410.06 147.15,413.98 145.56,417.00 C143.97,420.02 141.61,424.07 140.33,425.98 C139.05,427.90 138.00,429.82 138.00,430.25 C138.00,430.68 136.28,433.86 134.18,437.32 C132.08,440.77 130.55,444.14 130.77,444.80 C131.35,446.56 177.34,446.51 178.77,444.75 C179.88,443.40 188.36,428.91 193.26,420.00 C194.93,416.98 196.63,414.05 197.04,413.50 C198.02,412.19 201.70,405.75 205.04,399.50 C206.51,396.75 209.19,392.02 211.00,389.00 C214.23,383.58 216.04,380.46 220.02,373.44 C222.43,369.18 224.27,366.18 228.56,359.50 C230.33,356.75 233.69,350.90 236.03,346.50 C238.36,342.10 242.91,334.15 246.14,328.84 C249.36,323.53 252.00,318.87 252.00,318.48 C252.00,318.10 254.84,313.00 258.32,307.14 C266.44,293.47 275.06,278.64 277.99,273.32 L 280.29 269.15 L 278.00 265.32 C276.74,263.22 274.38,259.08 272.74,256.13 C271.10,253.18 266.68,245.56 262.90,239.20 C259.13,232.84 255.90,227.19 255.71,226.64 C255.14,224.92 253.06,226.97 250.43,231.82 C249.04,234.39 246.39,238.98 244.54,242.00 C242.69,245.02 239.50,250.65 237.45,254.50 C235.40,258.35 232.29,263.75 230.54,266.50 C225.18,274.92 218.00,287.88 217.96,289.23 C217.94,289.93 216.38,292.98 214.49,296.00 C212.60,299.02 209.87,303.75 208.41,306.50 C206.95,309.25 203.00,316.13 199.63,321.79 C196.26,327.45 192.15,334.68 190.50,337.86 C186.98,344.66 182.38,352.06 179.34,355.82 L 177.17 358.50 L 152.34 358.44 L 127.50 358.38 L 127.20 354.90 C127.00,352.54 127.65,350.31 129.24,347.96 C131.69,344.31 139.75,330.25 141.82,326.00 C142.48,324.62 144.34,321.48 145.94,319.00 C147.54,316.52 149.69,312.92 150.72,311.00 C151.76,309.08 156.82,300.30 161.96,291.50 C167.11,282.70 172.41,273.48 173.74,271.00 C175.06,268.52 177.17,264.92 178.41,263.00 C181.55,258.15 190.09,243.44 200.75,224.50 C205.71,215.70 211.96,204.90 214.64,200.50 C217.33,196.10 220.09,191.38 220.77,190.00 C221.46,188.62 223.43,185.25 225.15,182.50 C226.87,179.75 230.07,174.12 232.26,170.00 C234.46,165.88 237.72,160.25 239.51,157.50 C241.31,154.75 243.72,150.70 244.88,148.50 C246.03,146.30 248.02,143.20 249.30,141.62 C252.56,137.57 254.47,138.91 260.54,149.48 C263.27,154.23 267.82,162.03 270.67,166.81 C273.51,171.59 278.64,180.45 282.07,186.50 C287.51,196.09 289.72,199.82 295.74,209.51 C296.41,210.60 297.62,212.93 298.40,214.68 C299.19,216.43 302.20,221.83 305.09,226.68 C307.98,231.53 312.90,240.00 316.02,245.50 C323.29,258.29 334.72,277.92 339.04,285.00 C343.87,292.93 353.17,308.27 355.50,312.16 C356.60,313.99 359.53,319.32 362.02,324.00 C364.51,328.67 369.15,337.12 372.34,342.77 C375.77,348.86 378.01,353.95 377.82,355.27 L 377.50 357.50 L 273.16 358.50 L 270.58 360.92 C269.16,362.26 268.00,363.85 268.00,364.46 C268.00,365.06 264.74,370.96 260.75,377.55 C249.64,395.93 248.21,398.90 249.96,399.97 C250.78,400.48 284.91,400.90 328.96,400.94 L 406.50 401.00 L 408.75 403.75 C409.98,405.26 410.99,406.82 411.00,407.21 C411.00,407.60 413.54,412.10 416.63,417.21 C419.73,422.32 423.90,429.46 425.88,433.07 C427.87,436.68 430.48,440.96 431.67,442.57 L 433.84 445.50 ZM 305.94 446.57 C304.98,447.73 300.58,448.00 282.49,448.00 C262.74,448.00 259.99,447.80 258.15,446.25 C257.02,445.29 254.14,440.67 251.75,436.00 C249.37,431.33 246.29,425.70 244.90,423.50 C241.15,417.55 238.83,412.14 239.20,410.22 C239.49,408.67 241.53,408.56 262.51,408.86 C275.97,409.05 286.01,409.61 286.73,410.20 C287.41,410.76 288.57,412.40 289.31,413.86 C290.06,415.31 294.37,422.94 298.90,430.82 C305.52,442.35 306.90,445.42 305.94,446.57 ZM 258.64 443.56 L 260.90 446.00 L 282.45 446.00 C300.85,446.00 304.00,445.78 304.00,444.51 C304.00,442.96 298.47,432.60 290.40,419.04 L 285.68 411.11 L 265.09 410.81 C253.77,410.64 243.94,410.66 243.25,410.86 C241.14,411.46 241.84,414.35 245.60,420.56 C247.58,423.83 250.82,429.79 252.79,433.81 C254.76,437.83 257.40,442.21 258.64,443.56 Z" fill="rgb(244,148,107)"/>
<path d="M 72.16 352.95 C72.17,353.25 73.93,350.90 76.93,346.48 C79.17,343.19 81.00,339.99 81.00,339.37 C81.00,338.74 83.07,335.21 85.61,331.51 C88.14,327.81 91.49,322.21 93.05,319.06 C94.61,315.91 96.55,312.79 97.37,312.11 C98.18,311.43 100.79,306.99 103.17,302.22 C105.83,296.92 109.53,291.46 112.75,288.13 C115.64,285.14 118.00,282.31 118.00,281.84 C118.00,281.38 118.64,281.00 119.43,281.00 C120.22,281.00 121.14,280.14 121.47,279.09 C121.80,278.04 122.73,276.93 123.54,276.62 C124.34,276.32 125.00,274.95 125.00,273.59 C125.00,270.74 126.14,269.73 128.41,270.60 C130.42,271.38 130.48,275.67 128.50,277.64 C127.68,278.47 127.00,279.79 127.00,280.57 C127.00,282.20 129.57,282.51 130.50,281.00 C131.31,279.69 138.13,279.72 141.62,281.05 C144.48,282.13 150.00,280.70 150.00,278.88 C150.00,278.40 150.81,278.00 151.80,278.00 C154.41,278.00 156.00,276.01 156.00,272.77 C156.00,269.42 156.77,269.04 164.29,268.67 C169.69,268.40 170.00,268.52 170.00,270.73 C170.00,273.41 167.60,274.74 165.66,273.13 C164.69,272.32 163.83,272.41 162.42,273.44 C160.54,274.81 160.55,274.89 162.76,277.24 C164.57,279.17 164.89,280.33 164.36,283.08 C163.62,286.92 160.68,291.60 157.29,294.32 C156.04,295.31 154.31,298.57 153.44,301.55 C152.58,304.53 151.45,307.22 150.93,307.54 C150.42,307.86 150.00,308.87 150.00,309.78 C150.00,311.18 150.22,311.13 151.37,309.47 C151.78,308.89 153.07,306.74 154.86,303.74 C152.79,307.32 151.25,310.03 150.72,311.00 C149.69,312.92 147.54,316.52 145.94,319.00 C144.34,321.48 142.48,324.62 141.82,326.00 C139.75,330.25 131.69,344.31 129.24,347.96 C127.65,350.31 127.00,352.54 127.20,354.90 L 127.50 358.38 L 152.34 358.44 L 177.17 358.50 L 179.34 355.82 C182.38,352.06 186.98,344.66 190.50,337.86 C192.15,334.68 196.26,327.45 199.63,321.79 C203.00,316.13 206.95,309.25 208.41,306.50 C209.87,303.75 212.60,299.02 214.49,296.00 C216.38,292.98 217.94,289.93 217.96,289.23 C217.97,289.02 218.14,288.53 218.46,287.83 C220.15,286.30 228.00,275.17 228.00,274.18 C228.00,273.61 228.68,272.46 229.51,271.63 C230.34,270.80 231.90,268.07 232.97,265.56 C234.05,263.05 235.37,261.00 235.90,261.00 C237.09,261.00 246.00,247.89 246.00,246.15 C246.00,245.46 246.73,243.46 247.62,241.70 C250.29,236.43 257.12,231.91 255.32,236.61 C254.95,237.57 255.24,238.08 256.11,237.96 C259.71,237.45 261.20,238.22 262.47,241.25 C263.22,243.04 265.19,246.37 266.85,248.65 C268.51,250.94 270.17,254.41 270.54,256.36 C270.91,258.32 272.51,261.28 274.10,262.95 C278.20,267.24 278.02,271.92 273.48,279.46 C271.55,282.67 270.15,285.49 270.38,285.72 C270.54,285.87 271.64,284.31 273.13,281.88 C269.12,288.82 263.61,298.23 258.32,307.14 C254.84,313.00 252.00,318.10 252.00,318.48 C252.00,318.87 249.36,323.53 246.14,328.84 C242.91,334.15 238.36,342.10 236.03,346.50 C233.69,350.90 230.33,356.75 228.56,359.50 C224.27,366.18 222.43,369.18 220.02,373.44 C216.04,380.46 214.23,383.58 211.00,389.00 C209.19,392.02 206.51,396.75 205.04,399.50 C201.70,405.75 198.02,412.19 197.04,413.50 C196.63,414.05 194.93,416.98 193.26,420.00 C188.36,428.91 179.88,443.40 178.77,444.75 C177.34,446.51 131.35,446.56 130.77,444.80 C130.55,444.14 132.08,440.77 134.18,437.32 C136.28,433.86 138.00,430.68 138.00,430.25 C138.00,429.82 139.05,427.90 140.33,425.98 C141.61,424.07 143.97,420.02 145.56,417.00 C147.15,413.98 149.51,410.06 150.81,408.30 C152.10,406.54 153.01,404.29 152.82,403.30 C152.50,401.64 150.64,401.48 128.49,401.20 C99.38,400.84 96.43,401.15 95.55,404.65 C95.20,406.05 94.07,408.39 93.04,409.85 C92.01,411.31 87.71,418.58 83.49,426.00 C79.26,433.42 74.70,440.96 73.35,442.75 L 70.90 446.00 L 46.01 446.00 C29.45,446.00 20.90,445.64 20.46,444.93 C20.10,444.35 21.34,441.31 23.22,438.18 C25.10,435.06 28.59,429.12 30.97,425.00 C42.05,405.83 46.55,398.08 49.65,392.85 C51.49,389.74 53.00,386.90 53.00,386.53 C53.00,386.16 54.45,383.75 56.23,381.18 C58.00,378.61 60.17,375.15 61.05,373.50 C63.34,369.17 66.51,363.73 69.45,359.09 C70.85,356.86 72.00,354.42 72.00,353.66 C72.00,353.49 72.06,353.25 72.16,352.95 ZM 453.67 446.04 L 433.84 445.50 L 431.67 442.57 C430.48,440.96 427.87,436.68 425.88,433.07 C423.90,429.46 419.73,422.32 416.63,417.21 C413.54,412.10 411.00,407.60 411.00,407.21 C410.99,406.82 409.98,405.26 408.75,403.75 L 406.50 401.00 L 328.96 400.94 C284.91,400.90 250.78,400.48 249.96,399.97 C248.21,398.90 249.64,395.93 260.75,377.55 C264.74,370.96 268.00,365.06 268.00,364.46 C268.00,363.85 269.16,362.26 270.58,360.92 L 273.16 358.50 L 377.50 357.50 L 377.82 355.27 C378.01,353.95 375.77,348.86 372.34,342.77 C369.15,337.12 364.51,328.67 362.02,324.00 C359.53,319.32 356.60,313.99 355.50,312.16 C353.99,309.65 349.58,302.36 345.34,295.38 C345.53,295.59 345.65,295.68 345.70,295.63 C345.91,295.42 345.21,293.73 344.14,291.88 C343.08,290.02 341.87,287.38 341.47,286.00 C341.06,284.62 339.41,281.99 337.80,280.14 C336.19,278.29 333.94,274.69 332.80,272.14 C331.67,269.59 330.35,266.83 329.88,266.00 C325.89,259.04 324.88,256.43 325.30,254.19 C325.69,252.18 324.77,250.58 320.89,246.48 C318.19,243.62 316.00,240.36 316.00,239.18 C316.00,236.62 320.34,233.46 322.21,234.66 C324.57,236.17 330.35,237.90 331.23,237.36 C331.71,237.06 331.96,234.27 331.80,231.16 C331.53,226.07 331.70,225.50 333.50,225.50 C334.98,225.50 335.59,226.28 335.84,228.50 C336.27,232.35 337.67,234.00 340.50,234.00 C345.23,234.00 346.83,226.83 342.25,226.18 C339.90,225.85 339.60,225.20 340.61,222.58 C341.39,220.55 345.37,220.54 347.06,222.57 C347.81,223.48 349.21,223.92 350.38,223.61 C353.23,222.87 354.92,224.64 355.64,229.13 C356.18,232.54 356.59,233.00 359.01,233.00 C362.28,233.00 363.26,234.05 365.56,240.00 C366.52,242.48 368.08,245.40 369.02,246.50 C369.97,247.60 371.36,249.67 372.12,251.11 C374.04,254.74 378.93,262.00 379.46,262.00 C379.61,262.00 379.26,261.20 378.62,259.94 C381.84,265.44 384.74,270.32 387.09,274.14 C389.69,278.38 392.13,282.84 392.52,284.06 C392.91,285.28 395.57,289.92 398.44,294.39 C401.32,298.85 406.51,307.67 409.99,314.00 C413.46,320.33 417.59,327.38 419.15,329.68 C420.72,331.98 422.00,334.12 422.00,334.43 C422.00,334.75 425.53,340.96 429.84,348.25 C434.14,355.54 442.76,370.50 448.97,381.50 C455.19,392.50 461.72,403.75 463.49,406.51 C465.25,409.26 468.42,414.66 470.53,418.51 C472.64,422.35 476.76,429.49 479.68,434.38 C482.61,439.26 485.00,443.81 485.00,444.50 C485.00,445.75 479.20,447.15 475.50,446.78 C474.40,446.67 464.58,446.34 453.67,446.04 ZM 258.64 443.56 C257.40,442.21 254.76,437.83 252.79,433.81 C250.82,429.79 247.58,423.83 245.60,420.56 C241.84,414.35 241.14,411.46 243.25,410.86 C243.94,410.66 253.77,410.64 265.09,410.81 L 285.68 411.11 L 290.40 419.04 C298.47,432.60 304.00,442.96 304.00,444.51 C304.00,445.78 300.85,446.00 282.45,446.00 L 260.90 446.00 ZM 177.45 260.48 C174.61,264.20 170.14,265.54 171.53,262.25 C171.94,261.29 172.55,259.15 172.89,257.50 C173.93,252.38 175.61,250.33 177.70,251.60 C180.49,253.31 180.40,256.62 177.45,260.48 ZM 316.84 229.54 C313.97,233.74 312.30,234.51 311.50,231.98 C310.82,229.85 314.58,224.00 316.63,224.00 C319.07,224.00 319.15,226.15 316.84,229.54 ZM 167.00 259.06 C167.00,260.13 166.54,261.00 165.97,261.00 C164.62,261.00 163.64,258.39 164.48,257.03 C165.42,255.51 167.00,256.77 167.00,259.06 ZM 350.77 218.19 C350.13,220.10 348.30,220.22 347.60,218.40 C346.78,216.27 347.45,215.58 349.54,216.38 C350.43,216.72 350.99,217.54 350.77,218.19 ZM 249.00 248.50 C249.00,249.32 249.68,250.00 250.50,250.00 C251.32,250.00 252.00,249.32 252.00,248.50 C252.00,247.68 251.32,247.00 250.50,247.00 C249.68,247.00 249.00,247.68 249.00,248.50 ZM 371.15 246.99 C370.63,246.18 370.18,245.53 369.86,245.12 C368.84,243.80 368.00,242.40 368.00,241.99 C368.00,241.58 363.88,234.14 359.94,227.24 C361.25,229.49 362.53,231.73 363.52,233.50 C366.06,238.03 368.63,242.58 371.15,246.99 ZM 342.23 290.25 C341.06,288.32 339.96,286.52 339.04,285.00 C338.19,283.61 337.07,281.74 335.76,279.53 C336.75,281.16 337.47,282.30 337.85,282.86 C338.80,284.23 340.72,287.46 342.23,290.25 ZM 280.15 269.39 L 278.27 266.00 C277.22,264.10 276.27,262.40 275.39,260.83 C276.39,262.58 277.34,264.23 278.00,265.32 L 280.29 269.15 ZM 353.05 215.62 C353.02,215.57 352.99,215.53 352.96,215.50 C352.53,214.95 350.37,211.09 348.16,206.93 C345.96,202.77 342.79,197.15 341.12,194.43 C342.79,197.15 345.85,202.55 347.92,206.43 C349.28,208.99 351.24,212.50 353.05,215.62 ZM 73.79 350.00 C72.98,351.32 72.49,352.18 72.28,352.62 C72.70,351.55 73.55,349.99 74.53,348.55 C74.84,348.10 75.19,347.54 75.58,346.91 C74.86,348.19 74.23,349.28 73.79,350.00 ZM 220.93 282.95 C222.74,279.57 225.17,275.31 227.55,271.34 C226.29,273.47 224.99,275.72 224.01,277.50 C222.99,279.36 221.86,281.34 220.93,282.95 Z" fill="rgb(246,69,5)"/>
<path d="M 72.16 352.95 C72.19,352.84 72.23,352.73 72.28,352.62 C72.49,352.18 72.98,351.32 73.79,350.00 C74.23,349.28 74.86,348.19 75.58,346.91 C76.96,344.67 78.73,341.51 79.99,339.02 C81.60,335.84 84.22,331.26 85.82,328.86 C88.77,324.44 91.47,319.71 97.76,308.00 C99.67,304.42 101.81,300.83 102.49,300.00 C103.18,299.17 106.11,294.23 109.02,289.00 C111.92,283.77 115.59,277.19 117.17,274.36 C118.74,271.53 120.70,268.66 121.52,267.99 C122.33,267.31 123.00,266.38 123.00,265.91 C123.00,265.08 127.83,256.26 132.54,248.50 C133.88,246.30 137.29,240.23 140.13,235.00 C142.97,229.77 146.28,224.15 147.49,222.50 C148.70,220.85 151.27,216.57 153.20,213.00 C157.19,205.58 163.55,194.22 164.95,192.00 C165.47,191.18 168.12,186.68 170.85,182.00 C173.57,177.32 178.16,169.45 181.04,164.50 C183.93,159.55 187.66,153.02 189.33,150.00 C191.01,146.98 194.83,140.23 197.83,135.00 C200.83,129.77 204.93,122.57 206.93,119.00 C208.94,115.43 211.80,110.71 213.29,108.52 C214.78,106.33 216.00,104.24 216.00,103.87 C216.00,103.50 217.80,100.24 220.00,96.62 C222.20,93.00 224.00,89.81 224.00,89.54 C224.00,89.26 225.51,86.67 227.35,83.77 C229.19,80.87 232.18,75.80 233.98,72.50 C235.78,69.20 237.87,65.79 238.63,64.92 C239.38,64.05 240.00,62.99 240.00,62.56 C240.00,60.34 250.69,44.02 252.15,44.01 C253.82,44.00 258.84,50.94 262.77,58.68 C265.92,64.87 266.38,65.68 272.45,75.76 C275.52,80.86 279.52,87.84 281.35,91.28 C284.79,97.77 294.01,113.59 306.67,134.74 C310.70,141.47 314.00,147.19 314.00,147.46 C314.00,147.72 317.28,153.46 321.30,160.22 C325.31,166.97 330.73,176.32 333.34,181.00 C335.95,185.68 339.46,191.72 341.12,194.43 C342.79,197.15 345.96,202.77 348.16,206.93 C350.37,211.09 352.53,214.95 352.96,215.50 C352.99,215.53 353.02,215.57 353.05,215.62 C354.00,217.25 354.90,218.77 355.64,220.00 C356.82,221.93 358.40,224.59 359.94,227.24 C363.88,234.14 368.00,241.58 368.00,241.99 C368.00,242.40 368.84,243.80 369.86,245.12 C370.18,245.53 370.63,246.18 371.15,246.99 C373.73,251.52 376.26,255.89 378.62,259.94 C379.26,261.20 379.61,262.00 379.46,262.00 C378.93,262.00 374.04,254.74 372.12,251.11 C371.36,249.67 369.97,247.60 369.02,246.50 C368.08,245.40 366.52,242.48 365.56,240.00 C363.26,234.05 362.28,233.00 359.01,233.00 C356.59,233.00 356.18,232.54 355.64,229.13 C354.92,224.64 353.23,222.87 350.38,223.61 C349.21,223.92 347.81,223.48 347.06,222.57 C345.37,220.54 341.39,220.55 340.61,222.58 C339.60,225.20 339.90,225.85 342.25,226.18 C346.83,226.83 345.23,234.00 340.50,234.00 C337.67,234.00 336.27,232.35 335.84,228.50 C335.59,226.28 334.98,225.50 333.50,225.50 C331.70,225.50 331.53,226.07 331.80,231.16 C331.96,234.27 331.71,237.06 331.23,237.36 C330.35,237.90 324.57,236.17 322.21,234.66 C320.34,233.46 316.00,236.62 316.00,239.18 C316.00,240.36 318.19,243.62 320.89,246.48 C324.77,250.58 325.69,252.18 325.30,254.19 C324.88,256.43 325.89,259.04 329.88,266.00 C330.35,266.83 331.67,269.59 332.80,272.14 C333.94,274.69 336.19,278.29 337.80,280.14 C339.41,281.99 341.06,284.62 341.47,286.00 C341.87,287.38 343.08,290.02 344.14,291.88 C345.21,293.73 345.91,295.42 345.70,295.63 C345.65,295.68 345.53,295.59 345.34,295.38 C344.28,293.62 343.23,291.89 342.23,290.25 C340.72,287.46 338.80,284.23 337.85,282.86 C337.47,282.30 336.75,281.16 335.76,279.53 C330.40,270.48 321.86,255.78 316.02,245.50 C312.90,240.00 307.98,231.53 305.09,226.68 C302.20,221.83 299.19,216.43 298.40,214.68 C297.62,212.93 296.41,210.60 295.74,209.51 C289.72,199.82 287.51,196.09 282.07,186.50 C278.64,180.45 273.51,171.59 270.67,166.81 C267.82,162.03 263.27,154.23 260.54,149.48 C254.47,138.91 252.56,137.57 249.30,141.62 C248.02,143.20 246.03,146.30 244.88,148.50 C243.72,150.70 241.31,154.75 239.51,157.50 C237.72,160.25 234.46,165.88 232.26,170.00 C230.07,174.12 226.87,179.75 225.15,182.50 C223.43,185.25 221.46,188.62 220.77,190.00 C220.09,191.38 217.33,196.10 214.64,200.50 C211.96,204.90 205.71,215.70 200.75,224.50 C190.09,243.44 181.55,258.15 178.41,263.00 C177.17,264.92 175.06,268.52 173.74,271.00 C172.41,273.48 167.11,282.70 161.96,291.50 C159.41,295.86 156.88,300.22 154.86,303.74 C153.07,306.74 151.78,308.89 151.37,309.47 C150.22,311.13 150.00,311.18 150.00,309.78 C150.00,308.87 150.42,307.86 150.93,307.54 C151.45,307.22 152.58,304.53 153.44,301.55 C154.31,298.57 156.04,295.31 157.29,294.32 C160.68,291.60 163.62,286.92 164.36,283.08 C164.89,280.33 164.57,279.17 162.76,277.24 C160.55,274.89 160.54,274.81 162.42,273.44 C163.83,272.41 164.69,272.32 165.66,273.13 C167.60,274.74 170.00,273.41 170.00,270.73 C170.00,268.52 169.69,268.40 164.29,268.67 C156.77,269.04 156.00,269.42 156.00,272.77 C156.00,276.01 154.41,278.00 151.80,278.00 C150.81,278.00 150.00,278.40 150.00,278.88 C150.00,280.70 144.48,282.13 141.62,281.05 C138.13,279.72 131.31,279.69 130.50,281.00 C129.57,282.51 127.00,282.20 127.00,280.57 C127.00,279.79 127.68,278.47 128.50,277.64 C130.48,275.67 130.42,271.38 128.41,270.60 C126.14,269.73 125.00,270.74 125.00,273.59 C125.00,274.95 124.34,276.32 123.54,276.62 C122.73,276.93 121.80,278.04 121.47,279.09 C121.14,280.14 120.22,281.00 119.43,281.00 C118.64,281.00 118.00,281.38 118.00,281.84 C118.00,282.31 115.64,285.14 112.75,288.13 C109.53,291.46 105.83,296.92 103.17,302.22 C100.79,306.99 98.18,311.43 97.37,312.11 C96.55,312.79 94.61,315.91 93.05,319.06 C91.49,322.21 88.14,327.81 85.61,331.51 C83.07,335.21 81.00,338.74 81.00,339.37 C81.00,339.99 79.17,343.19 76.93,346.48 C73.93,350.90 72.17,353.25 72.16,352.95 ZM 280.15 269.39 L 277.99 273.32 C276.97,275.17 275.26,278.18 273.13,281.88 C271.64,284.31 270.54,285.87 270.38,285.72 C270.15,285.49 271.55,282.67 273.48,279.46 C278.02,271.92 278.20,267.24 274.10,262.95 C272.51,261.28 270.91,258.32 270.54,256.36 C270.17,254.41 268.51,250.94 266.85,248.65 C265.19,246.37 263.22,243.04 262.47,241.25 C261.20,238.22 259.71,237.45 256.11,237.96 C255.24,238.08 254.95,237.57 255.32,236.61 C257.12,231.91 250.29,236.43 247.62,241.70 C246.73,243.46 246.00,245.46 246.00,246.15 C246.00,247.89 237.09,261.00 235.90,261.00 C235.37,261.00 234.05,263.05 232.97,265.56 C231.90,268.07 230.34,270.80 229.51,271.63 C228.68,272.46 228.00,273.61 228.00,274.18 C228.00,275.17 220.15,286.30 218.46,287.83 C218.97,286.69 219.84,284.98 220.93,282.95 C221.86,281.34 222.99,279.36 224.01,277.50 C224.99,275.72 226.29,273.47 227.55,271.34 L 227.55 271.34 C228.57,269.64 229.59,268.00 230.54,266.50 C232.29,263.75 235.40,258.35 237.45,254.50 C239.50,250.65 242.69,245.02 244.54,242.00 C246.39,238.98 249.04,234.39 250.43,231.82 C253.06,226.97 255.14,224.92 255.71,226.64 C255.90,227.19 259.13,232.84 262.90,239.20 C266.68,245.56 271.10,253.18 272.74,256.13 C273.52,257.54 274.47,259.23 275.39,260.83 C276.27,262.40 277.22,264.10 278.27,266.00 ZM 177.45 260.48 C180.40,256.62 180.49,253.31 177.70,251.60 C175.61,250.33 173.93,252.38 172.89,257.50 C172.55,259.15 171.94,261.29 171.53,262.25 C170.14,265.54 174.61,264.20 177.45,260.48 ZM 316.84 229.54 C319.15,226.15 319.07,224.00 316.63,224.00 C314.58,224.00 310.82,229.85 311.50,231.98 C312.30,234.51 313.97,233.74 316.84,229.54 ZM 167.00 259.06 C167.00,256.77 165.42,255.51 164.48,257.03 C163.64,258.39 164.62,261.00 165.97,261.00 C166.54,261.00 167.00,260.13 167.00,259.06 ZM 350.77 218.19 C350.99,217.54 350.43,216.72 349.54,216.38 C347.45,215.58 346.78,216.27 347.60,218.40 C348.30,220.22 350.13,220.10 350.77,218.19 ZM 249.00 248.50 C249.00,247.68 249.68,247.00 250.50,247.00 C251.32,247.00 252.00,247.68 252.00,248.50 C252.00,249.32 251.32,250.00 250.50,250.00 C249.68,250.00 249.00,249.32 249.00,248.50 Z" fill="rgb(248,99,3)"/>
<path d="M 0.00 233.50 L 0.00 0.00 L 254.00 0.00 L 508.00 0.00 L 508.00 233.50 L 508.00 467.00 L 254.00 467.00 L 0.00 467.00 L 0.00 233.50 ZM 75.35 442.75 C81.22,433.59 95.71,408.50 96.42,406.26 C96.79,405.07 97.87,403.89 98.80,403.63 C101.06,403.00 123.59,402.51 138.25,402.78 C148.48,402.97 150.00,403.22 150.00,404.67 C150.00,405.59 149.39,407.05 148.64,407.92 C147.48,409.27 139.28,423.58 130.21,440.11 C125.82,448.11 125.50,448.00 153.22,447.97 C170.73,447.95 177.94,447.60 179.08,446.72 C179.96,446.05 181.92,443.25 183.45,440.50 C184.97,437.75 191.33,426.65 197.57,415.84 C203.82,405.03 210.23,393.78 211.82,390.84 C213.42,387.90 217.26,381.32 220.36,376.21 C223.46,371.11 226.00,366.77 226.00,366.58 C226.00,366.39 227.79,363.55 229.97,360.28 C232.16,357.01 235.59,350.99 237.60,346.91 C239.61,342.84 242.73,337.25 244.55,334.50 C246.36,331.75 250.50,324.77 253.74,319.00 C258.55,310.43 265.75,297.95 271.02,289.00 C277.14,278.64 281.00,270.85 281.00,268.88 C281.00,267.55 279.95,264.90 278.66,262.98 C277.38,261.07 274.83,256.80 273.00,253.50 C271.17,250.20 267.97,244.57 265.88,241.00 C263.79,237.43 260.84,232.12 259.32,229.21 C255.68,222.27 253.71,222.52 249.14,230.50 C247.25,233.80 244.03,239.43 241.98,243.00 C239.94,246.57 234.69,255.80 230.32,263.50 C225.94,271.20 221.16,279.40 219.68,281.73 C218.21,284.06 217.00,286.19 217.00,286.46 C217.00,286.74 215.28,289.79 213.18,293.23 C211.07,296.68 207.98,301.98 206.30,305.00 C204.62,308.02 200.55,315.23 197.27,321.00 C193.98,326.77 189.65,334.42 187.65,338.00 C185.64,341.58 183.55,345.17 183.01,346.00 C182.47,346.83 181.10,349.21 179.97,351.29 C178.84,353.37 176.81,355.50 175.45,356.02 C174.06,356.55 163.28,356.78 150.74,356.55 C131.90,356.21 128.45,355.92 128.19,354.64 C128.02,353.80 130.90,348.03 134.60,341.81 C145.08,324.18 147.56,319.91 150.76,314.00 C152.40,310.98 155.09,306.25 156.75,303.50 C158.41,300.75 162.24,294.23 165.25,289.00 C168.26,283.77 174.03,273.88 178.06,267.00 C190.71,245.44 198.00,232.76 198.00,232.33 C198.00,232.09 199.57,229.44 201.50,226.43 C203.43,223.42 205.00,220.73 205.00,220.45 C205.00,220.16 207.64,215.56 210.86,210.22 C214.08,204.87 222.78,189.93 230.20,177.00 C247.72,146.47 250.74,141.80 252.75,142.19 C254.39,142.51 256.39,145.58 265.90,162.35 C266.94,164.19 269.80,169.03 272.26,173.10 C274.71,177.17 279.52,185.45 282.95,191.50 C286.38,197.55 290.95,205.43 293.10,209.00 C295.25,212.57 297.44,216.49 297.96,217.70 C298.48,218.91 300.45,222.28 302.33,225.20 C304.21,228.11 310.14,238.38 315.51,248.00 C320.87,257.62 326.25,267.08 327.46,269.00 C330.55,273.92 343.24,295.60 346.18,301.00 C349.96,307.91 368.78,340.78 372.70,347.30 C374.61,350.48 375.93,353.75 375.62,354.55 C374.98,356.20 367.82,356.41 307.41,356.46 C277.44,356.49 271.02,356.75 269.57,357.95 C268.61,358.74 265.81,363.24 263.36,367.95 C260.90,372.65 257.68,378.57 256.20,381.11 C247.03,396.77 245.75,399.39 246.61,400.71 C247.35,401.87 260.40,402.13 326.21,402.30 C394.69,402.47 405.12,402.70 406.39,404.00 C407.19,404.83 412.84,414.27 418.94,425.00 C425.04,435.73 430.98,445.29 432.13,446.25 C434.00,447.82 436.89,448.00 459.86,447.98 C473.96,447.98 486.13,447.57 486.91,447.08 C488.03,446.37 486.63,443.29 479.98,431.84 C475.39,423.95 469.99,414.58 467.96,411.00 C463.10,402.41 454.55,387.64 447.99,376.50 C445.07,371.55 441.68,365.66 440.45,363.41 C439.23,361.16 437.05,357.45 435.61,355.18 C434.18,352.90 433.00,350.81 433.00,350.53 C433.00,350.25 431.03,346.95 428.63,343.20 C426.22,339.45 423.95,335.40 423.57,334.21 C423.19,333.02 421.18,329.45 419.11,326.27 C417.04,323.10 412.71,315.77 409.51,310.00 C406.30,304.23 402.47,297.70 401.00,295.50 C399.53,293.30 397.26,289.48 395.95,287.00 C394.64,284.52 389.84,276.14 385.29,268.36 C380.73,260.58 377.00,253.77 377.00,253.22 C377.00,252.67 375.51,250.04 373.69,247.36 C371.87,244.69 364.15,231.48 356.53,218.00 C348.92,204.52 341.01,190.80 338.96,187.50 C336.91,184.20 333.33,177.90 331.02,173.50 C328.70,169.10 326.18,164.79 325.40,163.92 C324.63,163.05 324.00,162.11 324.00,161.84 C324.00,161.56 318.90,152.59 312.67,141.91 C306.44,131.24 300.85,121.60 300.24,120.50 C299.63,119.40 296.90,114.68 294.17,110.00 C291.43,105.32 287.79,99.03 286.08,96.00 C283.17,90.86 277.12,80.40 272.50,72.50 C271.40,70.62 267.35,63.58 263.50,56.86 C256.05,43.85 253.41,40.00 251.94,40.00 C250.93,40.00 247.55,45.08 241.94,55.00 C233.65,69.69 214.28,103.22 208.16,113.50 C204.55,119.55 199.51,128.32 196.96,133.00 C192.47,141.22 180.18,162.46 169.78,180.00 C167.01,184.68 163.55,190.75 162.09,193.50 C159.39,198.59 154.47,207.17 146.02,221.50 C143.43,225.90 137.78,235.77 133.48,243.44 C129.17,251.10 123.96,260.10 121.89,263.44 C119.83,266.77 114.45,276.02 109.93,284.00 C105.42,291.98 101.16,299.17 100.47,300.00 C99.78,300.83 97.67,304.42 95.79,308.00 C91.82,315.53 89.11,320.28 85.61,325.82 C84.24,328.00 81.24,333.32 78.95,337.64 C76.66,341.96 74.21,346.17 73.51,347.00 C72.80,347.83 70.82,351.20 69.10,354.50 C67.39,357.80 65.56,361.17 65.05,362.00 C64.53,362.83 61.59,367.77 58.50,373.00 C55.41,378.23 52.46,383.17 51.94,384.00 C51.41,384.83 48.51,389.89 45.48,395.24 C36.22,411.64 20.60,438.62 18.04,442.62 C17.29,443.78 16.97,445.47 17.31,446.37 C17.87,447.82 20.89,448.00 44.96,448.00 L 71.98 448.00 L 75.35 442.75 ZM 305.94 446.57 C306.90,445.42 305.52,442.35 298.90,430.82 C294.37,422.94 290.06,415.31 289.31,413.86 C288.57,412.40 287.41,410.76 286.73,410.20 C286.01,409.61 275.97,409.05 262.51,408.86 C241.53,408.56 239.49,408.67 239.20,410.22 C238.83,412.14 241.15,417.55 244.90,423.50 C246.29,425.70 249.37,431.33 251.75,436.00 C254.14,440.67 257.02,445.29 258.15,446.25 C259.99,447.80 262.74,448.00 282.49,448.00 C300.58,448.00 304.98,447.73 305.94,446.57 Z" fill="rgb(254,254,253)"/>
</g>
</svg>