<?xml version="1.0" encoding="UTF-8"?>
<svg version="1.1" xmlns="http://www.w3.org/2000/svg" width="508" height="467">
<path d="M0 0 C8.11088441 3.5798573 11.59528265 12.68957224 15.40112305 20.21704102 C17.69065188 24.70169056 20.19477083 28.98935463 22.85546875 33.265625 C26.78227051 39.58060626 30.38356963 46.03262601 33.9375 52.5625 C39.24981988 62.23241899 44.78560299 71.72570244 50.5625 81.125 C57.84456301 92.97757721 64.7000549 105.03423344 71.44042969 117.203125 C76.6421934 126.53177326 82.08495085 135.72568602 87.4765625 144.9453125 C88.69286862 147.02594798 89.90901305 149.10667798 91.125 151.1875 C91.72699219 152.2175415 92.32898438 153.24758301 92.94921875 154.30883789 C96.53500285 160.4554038 100.06403117 166.62856426 103.52783203 172.84448242 C107.53048908 179.9999424 111.69376281 187.06164706 115.83666992 194.13647461 C119.58463904 200.54609655 123.26556496 206.98689819 126.87670898 213.47436523 C129.34798668 217.89449448 131.93098304 222.23617414 134.5625 226.5625 C137.56659846 231.50215544 140.38179969 236.50281853 143.0625 241.625 C146.02834422 247.28200631 149.23459357 252.71610848 152.625 258.1328125 C157.65708322 266.2483663 162.35811974 274.5705616 167.15332031 282.82714844 C168.93673658 285.89130467 170.72836634 288.95047219 172.5234375 292.0078125 C179.15577559 303.31348392 185.65128415 314.68426736 192.03125 326.13427734 C196.45213849 334.0562805 201.00407906 341.88882584 205.63378906 349.68994141 C210.8038379 358.43172163 215.89832304 367.21821806 221 376 C221.58765137 377.00933594 222.17530273 378.01867187 222.78076172 379.05859375 C224.46345363 381.95261685 226.13907232 384.8506124 227.8125 387.75 C228.32216309 388.62495117 228.83182617 389.49990234 229.35693359 390.40136719 C229.82309082 391.21250977 230.28924805 392.02365234 230.76953125 392.859375 C231.17792236 393.56545898 231.58631348 394.27154297 232.00708008 394.99902344 C232.99666242 396.99327396 233.54978212 398.82602983 234 401 C228.96888377 404.35407749 222.93914855 403.17965209 217.06201172 403.04443359 C214.12497636 403.00181356 211.19126177 403.01403063 208.25411987 403.03913879 C205.47285381 403.05483693 202.69241586 403.03478499 199.91125488 403.00918579 C198.51875146 403.00309111 197.12612069 403.01042931 195.73376465 403.03158569 C184.69035928 403.18151185 184.69035928 403.18151185 181.00732422 400.60717773 C179.3508695 398.50195027 178.203483 396.39415081 177 394 C175.78411232 391.94752042 174.56512831 389.89687325 173.34375 387.84765625 C172.05719552 385.58895068 170.77604577 383.32715901 169.5 381.0625 C165.56779069 374.10765304 161.65426265 367.24057662 157.04882812 360.70483398 C156 359 156 359 156 357 C155.2343145 357.00092179 154.468629 357.00184359 153.67974091 357.00279331 C135.03375755 357.02489462 116.38777681 357.04143403 97.74178314 357.05181217 C88.72466053 357.05696458 79.70754668 357.06398718 70.69042969 357.07543945 C62.82950348 357.08541852 54.9685836 357.09186111 47.10765123 357.09408849 C42.9468358 357.09539012 38.7860385 357.0984413 34.62522888 357.10573006 C30.70517185 357.11254113 26.78514036 357.11460663 22.86507797 357.11310768 C21.43003577 357.11338173 19.99499267 357.11535657 18.5599556 357.11920547 C11.61991914 357.13689892 4.86152813 357.09713669 -2 356 C-1.41502852 352.29298974 -0.39802674 349.51546967 1.4375 346.25 C1.96988281 345.30253906 2.50226563 344.35507812 3.05078125 343.37890625 C5.39860601 339.30902966 7.75210526 335.24281781 10.125 331.1875 C10.54450928 330.47045898 10.96401855 329.75341797 11.39624023 329.01464844 C18.88309476 316.32025422 18.88309476 316.32025422 22 314 C25.14698792 313.60800171 25.14698792 313.60800171 29.08813477 313.58349609 C29.80758774 313.57491074 30.52704071 313.56632538 31.26829529 313.55747986 C33.65943082 313.53230382 36.05014982 313.52802127 38.44140625 313.5234375 C40.12362398 313.5091023 41.8058301 313.49334083 43.48802185 313.47622681 C47.94143297 313.43425172 52.39477264 313.40938124 56.84832764 313.38873291 C63.87691867 313.35317032 70.90536572 313.2918313 77.9337883 313.23233795 C79.64458064 313.2180928 81.3553785 313.20449522 83.06618118 313.19155121 C97.39355284 313.08163567 111.68802026 312.70407917 126 312 C125.38330343 310.25662216 124.76214867 308.514821 124.13916016 306.77368164 C123.79374176 305.8035463 123.44832336 304.83341095 123.09243774 303.83387756 C121.54201537 299.81194843 119.53637046 296.15706778 117.375 292.4375 C116.47746077 290.8609069 115.5803362 289.28407768 114.68359375 287.70703125 C114.23226074 286.91893066 113.78092773 286.13083008 113.31591797 285.31884766 C112.09420721 283.16600743 110.90160629 281.00070214 109.72265625 278.82421875 C104.38914351 268.99938759 98.66864895 259.43088886 92.84133911 249.89343262 C84.73040575 236.61606705 76.84240366 223.21459764 69.0246582 209.76287842 C68.00864281 208.01486956 66.99168888 206.2674094 65.97460938 204.52001953 C59.09916923 192.6971638 52.31652947 180.83716865 45.77099609 168.82836914 C42.86622949 163.51848177 39.83982509 158.30597696 36.69165039 153.13745117 C32.87986445 146.85887259 29.22462205 140.49171677 25.5625 134.125 C18.99152701 122.70556022 18.99152701 122.70556022 12.375 111.3125 C11.99802979 110.66104004 11.62105957 110.00958008 11.23266602 109.33837891 C8.71496616 105.04224526 5.94080209 101.01909619 3 97 C0.34500636 97.36159029 -0.75267048 97.71352508 -2.53173828 99.77416992 C-2.99821777 100.52287354 -3.46469727 101.27157715 -3.9453125 102.04296875 C-4.4599707 102.86071777 -4.97462891 103.6784668 -5.50488281 104.52099609 C-5.99827148 105.33906738 -6.49166016 106.15713867 -7 107 C-7.4134668 107.68271973 -7.82693359 108.36543945 -8.25292969 109.06884766 C-9.48169419 111.1383726 -10.6816393 113.22237 -11.875 115.3125 C-12.32987793 116.10301758 -12.78475586 116.89353516 -13.25341797 117.70800781 C-16.16578364 122.77608102 -19.05849403 127.85537838 -21.953125 132.93359375 C-22.99319212 134.75784579 -24.0333402 136.58205158 -25.0736084 138.40618896 C-25.77633626 139.63855317 -26.47889073 140.87101626 -27.18127441 142.10357666 C-30.92676703 148.67397091 -34.68522735 155.23114913 -38.625 161.6875 C-42.43157388 167.95503469 -46.00148456 174.34017222 -49.5625 180.75 C-56.49313914 193.2130742 -63.750166 205.46762375 -71.04931641 217.71728516 C-79.36056525 231.70389992 -87.48030435 245.79530502 -95.45117188 259.97827148 C-98.45256026 265.30592045 -101.51037316 270.58785985 -104.6875 275.8125 C-108.01649293 281.28878533 -111.19767703 286.8365497 -114.3125 292.4375 C-114.92581177 293.53831909 -114.92581177 293.53831909 -115.55151367 294.66137695 C-116.71522101 296.76687089 -117.86018145 298.88149427 -119 301 C-119.38978027 301.70527832 -119.77956055 302.41055664 -120.18115234 303.13720703 C-120.54805176 303.82540527 -120.91495117 304.51360352 -121.29296875 305.22265625 C-121.78639771 306.13349976 -121.78639771 306.13349976 -122.28979492 307.06274414 C-123.28683542 309.43852369 -123.28683542 309.43852369 -123 314 C-106.5 314 -90 314 -73 314 C-72.34 312.68 -71.68 311.36 -71 310 C-69.84640662 308.11692846 -68.67778129 306.24303836 -67.5 304.375 C-63.79943719 298.43363556 -60.37662595 292.36175655 -57.00073242 286.23144531 C-53.65729578 280.16539621 -50.25150987 274.13736386 -46.8125 268.125 C-46.30009766 267.22821533 -45.78769531 266.33143066 -45.25976562 265.4074707 C-42.62785151 260.8105818 -39.96080957 256.23844909 -37.25 251.6875 C-34.63427961 247.24140868 -32.32880375 242.69186982 -30.0625 238.0625 C-27.13160048 232.08746325 -23.9017716 226.44886384 -20.33984375 220.8203125 C-16.59397348 214.80619326 -13.20201683 208.5780568 -9.7434082 202.39624023 C-8.1716033 199.5921095 -6.58712043 196.79548498 -5 194 C-4.47438477 193.05560059 -3.94876953 192.11120117 -3.40722656 191.13818359 C-2.63717285 189.79167725 -2.63717285 189.79167725 -1.8515625 188.41796875 C-1.39861816 187.61512451 -0.94567383 186.81228027 -0.47900391 185.98510742 C1.15648544 183.78996647 2.48227002 183.00041134 5 182 C5.30067383 182.53141602 5.60134766 183.06283203 5.91113281 183.61035156 C7.3548325 186.15837785 8.80234628 188.70421816 10.25 191.25 C10.78197998 192.1891626 11.31395996 193.1283252 11.86206055 194.09594727 C14.6560379 199.00107537 17.50345837 203.85467608 20.50390625 208.63671875 C21.05852539 209.5277832 21.61314453 210.41884766 22.18457031 211.33691406 C23.25181123 213.04181063 24.33278479 214.73820415 25.42871094 216.42480469 C25.91243164 217.20114258 26.39615234 217.97748047 26.89453125 218.77734375 C27.32612549 219.45015381 27.75771973 220.12296387 28.20239258 220.81616211 C29.32696924 223.89523716 28.82624567 225.85584371 28 229 C26.79174805 231.55102539 26.79174805 231.55102539 25.26171875 234.09765625 C24.69501465 235.05309326 24.12831055 236.00853027 23.54443359 236.99291992 C22.62525146 238.51236206 22.62525146 238.51236206 21.6875 240.0625 C20.40148843 242.22605433 19.11634727 244.39012624 17.83203125 246.5546875 C17.18572754 247.6384668 16.53942383 248.72224609 15.87353516 249.83886719 C13.15509433 254.42557188 10.50993226 259.05246868 7.875 263.6875 C6.89324503 265.41016529 5.91147423 267.13282156 4.9296875 268.85546875 C4.44725586 269.70286621 3.96482422 270.55026367 3.46777344 271.42333984 C0.48669799 276.65658506 -2.50424446 281.88420003 -5.49389648 287.11254883 C-8.03599036 291.55924041 -10.5742316 296.0080556 -13.10546875 300.4609375 C-17.79773867 308.70833898 -22.51466065 316.9317812 -27.42651367 325.05053711 C-34.98932415 337.57554774 -42.37108153 350.22290202 -49.5 363 C-53.36091607 369.9196 -57.32656195 376.77673195 -61.3125 383.625 C-61.91191406 384.65753906 -62.51132813 385.69007813 -63.12890625 386.75390625 C-64.73792019 389.51169817 -66.36070276 392.26011642 -68 395 C-68.39622559 395.66225586 -68.79245117 396.32451172 -69.20068359 397.00683594 C-71.01326281 399.89630551 -71.65397445 400.88465815 -75 402 C-76.41644596 402.09085254 -77.83674765 402.12789129 -79.25610352 402.12939453 C-80.11031387 402.13254669 -80.96452423 402.13569885 -81.84461975 402.13894653 C-82.7634343 402.1369223 -83.68224884 402.13489807 -84.62890625 402.1328125 C-85.57434799 402.13376923 -86.51978973 402.13472595 -87.49388123 402.13571167 C-89.49193386 402.13639209 -91.48998872 402.13454741 -93.48803711 402.13037109 C-96.55392391 402.12501498 -99.6196646 402.13032381 -102.68554688 402.13671875 C-104.62500032 402.13605806 -106.56445368 402.13477709 -108.50390625 402.1328125 C-109.42474503 402.13483673 -110.3455838 402.13686096 -111.29432678 402.13894653 C-112.14538498 402.13579437 -112.99644318 402.13264221 -113.87329102 402.12939453 C-114.62369156 402.12859894 -115.3740921 402.12780334 -116.14723206 402.12698364 C-118 402 -118 402 -120 401 C-119.42495803 397.45721269 -118.51691996 394.7272729 -116.77734375 391.59375 C-116.09841064 390.36301758 -116.09841064 390.36301758 -115.40576172 389.10742188 C-114.92123535 388.24697266 -114.43670898 387.38652344 -113.9375 386.5 C-113.44523926 385.61376953 -112.95297852 384.72753906 -112.44580078 383.81445312 C-108.96824999 377.59752689 -105.32053314 371.5175616 -101.4609375 365.53125 C-100.1409468 363.2442073 -99.56292862 361.53687783 -99 359 C-111.14350905 358.39355035 -123.27725194 357.89904597 -135.4375 357.875 C-136.3644165 357.87048828 -137.29133301 357.86597656 -138.24633789 357.86132812 C-143.90670637 357.87367017 -149.38488721 358.28026021 -155 359 C-155.09539062 359.70898438 -155.19078125 360.41796875 -155.2890625 361.1484375 C-156.12477745 364.50048096 -157.49933027 366.72345377 -159.375 369.625 C-163.49428024 376.09856598 -167.33766542 382.71274148 -171.14208984 389.37548828 C-171.58504395 390.14747559 -172.02799805 390.91946289 -172.484375 391.71484375 C-172.87334961 392.39667725 -173.26232422 393.07851074 -173.66308594 393.78100586 C-174.10426758 394.51327393 -174.54544922 395.24554199 -175 396 C-175.47373047 397.06629639 -175.94746094 398.13259277 -176.43554688 399.23120117 C-179.38961733 402.42066357 -179.9829186 402.442219 -184.13574219 402.68115234 C-186.27302192 402.68020345 -188.41044939 402.64636233 -190.546875 402.5859375 C-191.6732135 402.57744781 -192.799552 402.56895813 -193.96002197 402.56021118 C-197.55765412 402.52662314 -201.1530453 402.45132668 -204.75 402.375 C-207.18876972 402.34490771 -209.62757456 402.31753064 -212.06640625 402.29296875 C-218.04503548 402.22681396 -224.02235767 402.12640933 -230 402 C-231 399 -231 399 -230.09814453 396.82470703 C-229.61458496 395.97763184 -229.13102539 395.13055664 -228.6328125 394.2578125 C-227.81115601 392.80314575 -227.81115601 392.80314575 -226.97290039 391.3190918 C-226.36309326 390.2650415 -225.75328613 389.21099121 -225.125 388.125 C-224.18998657 386.48301636 -224.18998657 386.48301636 -223.23608398 384.80786133 C-221.17202323 381.19658124 -219.09043315 377.59605041 -217 374 C-216.45240021 373.05776581 -216.45240021 373.05776581 -215.89373779 372.09649658 C-211.26569553 364.13962256 -206.60365542 356.20303379 -201.92700195 348.2746582 C-200.0416967 345.07085744 -198.16741803 341.86087541 -196.296875 338.6484375 C-194.37453666 335.3479011 -192.44325157 332.05398609 -190.48046875 328.77734375 C-185.63441138 320.67572989 -181.09494036 312.47093048 -176.75073242 304.08984375 C-173.6028526 298.05338632 -170.23575911 292.18102581 -166.74560547 286.3371582 C-163.76778707 281.34145313 -160.92148576 276.28664654 -158.125 271.1875 C-154.06472505 263.799843 -149.78276545 256.56538801 -145.41088867 249.35839844 C-141.74374471 243.29627567 -138.22680047 237.16556631 -134.85327148 230.93505859 C-133.1586285 227.84951012 -131.47375738 225.46703521 -129 223 C-127.96591927 221.07010004 -126.99580466 219.10560072 -126.0625 217.125 C-119.15451309 202.87597118 -110.84389642 189.34167002 -102.64624023 175.80883789 C-97.94109105 167.99540628 -93.50466609 160.03913799 -89.07080078 152.06958008 C-84.61472955 144.06848673 -80.02595746 136.15935492 -75.35302734 128.28369141 C-67.44550775 114.93707678 -59.68475154 101.51871071 -52.1875 87.9375 C-48.00187933 80.35583822 -43.7887097 72.81467969 -39.2734375 65.42431641 C-36.13766883 60.28042722 -33.16005086 55.05208974 -30.1875 49.8125 C-25.60966621 41.74752683 -20.89621641 33.77597158 -16.09204102 25.84399414 C-13.4891648 21.53272322 -10.98052915 17.20342231 -8.625 12.75 C-6.17896764 8.14184975 -3.27553478 4.05376468 0 0 Z " fill="#F65304" transform="translate(251,44)"/>
<path d="M0 0 C1.67225729 0.30404678 3.33753959 0.64628502 5 1 C6.19625 1.185625 7.3925 1.37125 8.625 1.5625 C12 3 12 3 12.90234375 4.83984375 C13.5625 7 13.5625 7 14.00390625 9.125 C14.33261719 9.74375 14.66132813 10.3625 15 11 C15.93457031 11.26296875 16.86914062 11.5259375 17.83203125 11.796875 C22.16584568 13.4427626 23.26545021 16.26306403 25.125 20.25 C25.77035543 21.56922053 26.41876696 22.88695068 27.0703125 24.203125 C27.38774414 24.84443359 27.70517578 25.48574219 28.03222656 26.14648438 C29.94218318 29.80450421 32.05535627 33.07557238 35.0078125 35.96484375 C37.52554228 38.53687751 39.15713991 41.43378695 40.875 44.5625 C41.51179687 45.69816406 42.14859375 46.83382812 42.8046875 48.00390625 C44.00815762 50.18356839 45.19957927 52.36912305 46.38378906 54.55932617 C49.7908108 60.85232837 53.33402378 67.04222194 57 73.1875 C58.14771248 75.12075128 59.29482702 77.05435764 60.44140625 78.98828125 C61.02809082 79.97779785 61.61477539 80.96731445 62.21923828 81.98681641 C66.33422183 88.94967999 70.39560258 95.94394138 74.46484375 102.93359375 C76.80376624 106.9510143 79.15034917 110.96379248 81.50390625 114.97265625 C88.14167124 126.29067089 94.64476063 137.67255971 101.03125 149.13427734 C105.45213849 157.0562805 110.00407906 164.88882584 114.63378906 172.68994141 C119.8038379 181.43172163 124.89832304 190.21821806 130 199 C130.58765137 200.00933594 131.17530273 201.01867187 131.78076172 202.05859375 C133.46345363 204.95261685 135.13907232 207.8506124 136.8125 210.75 C137.32216309 211.62495117 137.83182617 212.49990234 138.35693359 213.40136719 C138.82309082 214.21250977 139.28924805 215.02365234 139.76953125 215.859375 C140.17792236 216.56545898 140.58631348 217.27154297 141.00708008 217.99902344 C141.99666242 219.99327396 142.54978212 221.82602983 143 224 C137.96888377 227.35407749 131.93914855 226.17965209 126.06201172 226.04443359 C123.12497636 226.00181356 120.19126177 226.01403063 117.25411987 226.03913879 C114.47285381 226.05483693 111.69241586 226.03478499 108.91125488 226.00918579 C107.51875146 226.00309111 106.12612069 226.01042931 104.73376465 226.03158569 C93.69035928 226.18151185 93.69035928 226.18151185 90.00732422 223.60717773 C88.3508695 221.50195027 87.203483 219.39415081 86 217 C84.78411232 214.94752042 83.56512831 212.89687325 82.34375 210.84765625 C81.05719552 208.58895068 79.77604577 206.32715901 78.5 204.0625 C74.56779069 197.10765304 70.65426265 190.24057662 66.04882812 183.70483398 C65 182 65 182 65 180 C64.2343145 180.00092179 63.468629 180.00184359 62.67974091 180.00279331 C44.03375755 180.02489462 25.38777681 180.04143403 6.74178314 180.05181217 C-2.27533947 180.05696458 -11.29245332 180.06398718 -20.30957031 180.07543945 C-28.17049652 180.08541852 -36.0314164 180.09186111 -43.89234877 180.09408849 C-48.0531642 180.09539012 -52.2139615 180.0984413 -56.37477112 180.10573006 C-60.29482815 180.11254113 -64.21485964 180.11460663 -68.13492203 180.11310768 C-69.56996423 180.11338173 -71.00500733 180.11535657 -72.4400444 180.11920547 C-79.38008086 180.13689892 -86.13847187 180.09713669 -93 179 C-92.41502852 175.29298974 -91.39802674 172.51546967 -89.5625 169.25 C-89.03011719 168.30253906 -88.49773437 167.35507812 -87.94921875 166.37890625 C-85.60139399 162.30902966 -83.24789474 158.24281781 -80.875 154.1875 C-80.45549072 153.47045898 -80.03598145 152.75341797 -79.60375977 152.01464844 C-72.11690524 139.32025422 -72.11690524 139.32025422 -69 137 C-65.85301208 136.60800171 -65.85301208 136.60800171 -61.91186523 136.58349609 C-61.19241226 136.57491074 -60.47295929 136.56632538 -59.73170471 136.55747986 C-57.34056918 136.53230382 -54.94985018 136.52802127 -52.55859375 136.5234375 C-50.87637602 136.5091023 -49.1941699 136.49334083 -47.51197815 136.47622681 C-43.05856703 136.43425172 -38.60522736 136.40938124 -34.15167236 136.38873291 C-27.12308133 136.35317032 -20.09463428 136.2918313 -13.0662117 136.23233795 C-11.35541936 136.2180928 -9.6446215 136.20449522 -7.93381882 136.19155121 C6.39355284 136.08163567 20.68802026 135.70407917 35 135 C34.38330343 133.25662216 33.76214867 131.514821 33.13916016 129.77368164 C32.79374176 128.8035463 32.44832336 127.83341095 32.09243774 126.83387756 C30.54200437 122.8119199 28.53624169 119.15717638 26.375 115.4375 C25.48796127 113.8777861 24.60125208 112.31788475 23.71484375 110.7578125 C23.2647998 109.97180664 22.81475586 109.18580078 22.35107422 108.37597656 C20.59849427 105.29391872 18.89220357 102.18743197 17.18457031 99.08032227 C13.6362966 92.62771566 9.98093918 86.27359626 6.125 80 C3.21653155 75.26098368 0.90932713 70.59207004 -0.9921875 65.3671875 C-2.151361 62.64447764 -3.61728239 60.34238042 -5.25 57.875 C-8.24967222 53.3204221 -10.8518248 48.67182606 -13.3125 43.8125 C-13.64991211 43.15942871 -13.98732422 42.50635742 -14.33496094 41.83349609 C-15.99580379 38.49921553 -17.22500166 35.38774602 -18.0390625 31.74609375 C-18.94846516 28.20090208 -19.54028674 26.753622 -22.0625 24.25 C-24.38702147 21.90842825 -25.55837667 20.32236628 -26 17 C-25 15.1875 -25 15.1875 -23 14 C-19.625 14.25 -19.625 14.25 -16 15 C-14.35 15.33 -12.7 15.66 -11 16 C-10.67 12.37 -10.34 8.74 -10 5 C-9.01 5 -8.02 5 -7 5 C-6.01 7.31 -5.02 9.62 -4 12 C-2.35 12 -0.7 12 1 12 C1.33 10.35 1.66 8.7 2 7 C0.68 6.01 -0.64 5.02 -2 4 C-1.34 2.68 -0.68 1.36 0 0 Z " fill="#F54505" transform="translate(342,221)"/>
<path d="M0 0 C5.5281609 -0.0489018 11.05378233 -0.06079664 16.58203125 -0.015625 C20.63225022 0.0160316 24.65324673 -0.05502848 28.69921875 -0.234375 C41.19742083 -0.57296806 41.19742083 -0.57296806 45.66796875 3.328125 C47.42264386 6.11599204 48.8001287 8.8651569 50.05908203 11.90527344 C51.12810413 14.28519289 52.38746541 16.48078922 53.71484375 18.7265625 C54.42229736 19.92841187 54.42229736 19.92841187 55.14404297 21.15454102 C55.61213379 21.94916748 56.08022461 22.74379395 56.5625 23.5625 C57.45342347 25.07612378 58.33078597 26.59784965 59.19140625 28.12890625 C59.56467041 28.77931885 59.93793457 29.42973145 60.32250977 30.09985352 C61.16291582 32.45692752 60.67983848 33.64182522 60 36 C54.00461865 36.24801107 48.01224498 36.42901269 42.01293945 36.54931641 C39.97464986 36.59947674 37.93671785 36.66762754 35.8996582 36.75439453 C19.09115891 37.45218327 19.09115891 37.45218327 14.27783203 34.10961914 C12.3950668 31.48499362 11.20979386 28.990422 10 26 C8.97390111 24.19289421 7.93215879 22.39458182 6.875 20.60546875 C5.9095048 18.80329779 4.95114679 16.99728478 4 15.1875 C3.49855469 14.27291016 2.99710938 13.35832031 2.48046875 12.41601562 C2.01253906 11.52978516 1.54460937 10.64355469 1.0625 9.73046875 C0.64097656 8.94051514 0.21945313 8.15056152 -0.21484375 7.33666992 C-1.16451165 4.51040392 -0.80769427 2.83100603 0 0 Z " fill="#F54606" transform="translate(243,410)"/>
<path d="M0 0 C0.66 0 1.32 0 2 0 C2.45101074 0.79712402 2.45101074 0.79712402 2.91113281 1.61035156 C4.3548325 4.15837785 5.80234628 6.70421816 7.25 9.25 C7.78197998 10.1891626 8.31395996 11.1283252 8.86206055 12.09594727 C11.6560379 17.00107537 14.50345837 21.85467608 17.50390625 26.63671875 C18.05852539 27.5277832 18.61314453 28.41884766 19.18457031 29.33691406 C20.25181123 31.04181063 21.33278479 32.73820415 22.42871094 34.42480469 C25.99588815 40.14987457 25.99588815 40.14987457 26.015625 44.23046875 C24.9258016 47.20233334 23.63441686 49.70325857 21.9375 52.375 C21.11572266 53.68597656 21.11572266 53.68597656 20.27734375 55.0234375 C19.64505859 56.00183594 19.64505859 56.00183594 19 57 C18.67 56.34 18.34 55.68 18 55 C18.77734375 53.30078125 18.77734375 53.30078125 19.9375 51.3125 C22.00035586 47.31661838 22.74524299 44.55426271 22 40 C20.79689189 38.30780678 19.58990561 36.61805305 18.35229492 34.95092773 C16.1423015 31.76261623 14.53628089 28.30906946 12.875 24.8125 C10.01098631 18.5454637 10.01098631 18.5454637 6 13 C3.40144267 12.1957792 3.40144267 12.1957792 1 12 C1 11.01 1 10.02 1 9 C-3.14079278 11.8232678 -5.19394384 13.86957988 -6.875 18.625 C-9.07999567 24.82888611 -12.66333798 30.06258826 -17 35 C-17.66 35 -18.32 35 -19 35 C-19.20625 35.78375 -19.4125 36.5675 -19.625 37.375 C-22.66236719 45.38260442 -27.72987111 52.30955269 -33 59 C-33.33 58.34 -33.66 57.68 -34 57 C-32.67958239 54.48594961 -31.29907377 52.10181805 -29.8125 49.6875 C-28.88010107 48.1401713 -27.94917644 46.59195348 -27.01953125 45.04296875 C-26.27823975 43.81199463 -26.27823975 43.81199463 -25.52197266 42.55615234 C-22.95199332 38.23987329 -20.47973264 33.86853661 -18 29.5 C-14.15532241 22.75305894 -10.29357328 16.01684366 -6.375 9.3125 C-5.96121094 8.59964844 -5.54742187 7.88679687 -5.12109375 7.15234375 C-3.57193958 4.51304405 -2.17370041 2.17370041 0 0 Z " fill="#F76408" transform="translate(254,226)"/>
<path d="M0 0 C0.99 0.33 1.98 0.66 3 1 C3.44117322 5.49996683 3.52867608 7.34611117 0.625 10.9375 C-2 13 -2 13 -4 13 C-3.40546697 3.40546697 -3.40546697 3.40546697 0 0 Z " fill="#F64604" transform="translate(176,251)"/>
<path d="M0 0 C-0.61016949 5.49152542 -0.61016949 5.49152542 -2.4375 7.875 C-4 9 -4 9 -6 9 C-6.25 6.75 -6.25 6.75 -6 4 C-2.75675676 0 -2.75675676 0 0 0 Z " fill="#F64504" transform="translate(318,224)"/>
</svg>
